<svg width="430" height="411" viewBox="0 0 430 411" fill="none" xmlns="http://www.w3.org/2000/svg">
<path d="M214.693 86C255.562 86 288.693 66.7482 288.693 43C288.693 19.2518 255.562 0 214.693 0C173.824 0 140.693 19.2518 140.693 43C140.693 66.7482 173.824 86 214.693 86Z" fill="white"/>
<path d="M214.693 410.1C255.562 410.1 288.693 390.848 288.693 367.1C288.693 343.352 255.562 324.1 214.693 324.1C173.824 324.1 140.693 343.352 140.693 367.1C140.693 390.848 173.824 410.1 214.693 410.1Z" fill="white"/>
<path d="M111.503 145.58C131.938 110.188 131.831 71.8706 111.265 59.9964C90.6994 48.1223 57.4619 67.1878 37.0273 102.58C16.5928 137.973 16.6994 176.29 37.2653 188.164C57.8313 200.039 91.0688 180.973 111.503 145.58Z" fill="#16984E"/>
<path d="M392.281 307.65C412.716 272.257 412.609 233.94 392.043 222.066C371.477 210.192 338.24 229.257 317.805 264.65C297.371 300.043 297.477 338.36 318.043 350.234C338.609 362.108 371.847 343.043 392.281 307.65Z" fill="#16984E"/>
<path d="M111.238 350.148C131.804 338.274 131.911 299.957 111.476 264.564C91.0415 229.172 57.804 210.106 37.238 221.98C16.672 233.855 16.5655 272.172 37 307.564C57.4345 342.957 90.672 362.023 111.238 350.148Z" fill="#E6007A"/>
<path d="M392.024 188.033C412.59 176.158 412.697 137.841 392.262 102.449C371.828 67.0559 338.59 47.9904 318.024 59.8645C297.458 71.7386 297.352 110.056 317.786 145.449C338.221 180.841 371.458 199.907 392.024 188.033Z" fill="#E6007A"/>
</svg>
