<svg width="1315" height="411" viewBox="0 0 1315 411" fill="none" xmlns="http://www.w3.org/2000/svg">
<path d="M214.693 86C255.562 86 288.693 66.7482 288.693 43C288.693 19.2518 255.562 0 214.693 0C173.824 0 140.693 19.2518 140.693 43C140.693 66.7482 173.824 86 214.693 86Z" fill="white"/>
<path d="M214.693 410.1C255.562 410.1 288.693 390.848 288.693 367.1C288.693 343.352 255.562 324.1 214.693 324.1C173.824 324.1 140.693 343.352 140.693 367.1C140.693 390.848 173.824 410.1 214.693 410.1Z" fill="white"/>
<path d="M111.503 145.58C131.938 110.188 131.831 71.8706 111.265 59.9964C90.6994 48.1223 57.4619 67.1878 37.0273 102.58C16.5928 137.973 16.6994 176.29 37.2653 188.164C57.8313 200.039 91.0688 180.973 111.503 145.58Z" fill="#55C455"/>
<path d="M392.281 307.65C412.716 272.257 412.609 233.94 392.043 222.066C371.477 210.192 338.24 229.257 317.805 264.65C297.371 300.043 297.477 338.36 318.043 350.234C338.609 362.108 371.847 343.043 392.281 307.65Z" fill="#55C455"/>
<path d="M111.238 350.148C131.804 338.274 131.911 299.957 111.476 264.564C91.0415 229.172 57.804 210.106 37.238 221.98C16.672 233.855 16.5655 272.172 37 307.564C57.4345 342.957 90.672 362.023 111.238 350.148Z" fill="#E6007A"/>
<path d="M392.024 188.033C412.59 176.158 412.697 137.841 392.262 102.449C371.828 67.0559 338.59 47.9904 318.024 59.8645C297.458 71.7386 297.352 110.056 317.786 145.449C338.221 180.841 371.458 199.907 392.024 188.033Z" fill="#E6007A"/>
<path d="M542.125 84.5C551.16 84.5 559.014 86.0913 565.687 89.274C572.412 92.4567 577.571 96.9483 581.164 102.749C584.758 108.498 586.554 115.146 586.554 122.692C586.554 130.238 584.758 136.886 581.164 142.635C577.571 148.384 572.412 152.85 565.687 156.033C558.963 159.216 551.109 160.807 542.125 160.807H505.242V200H479.139V84.5H542.125ZM540.739 139.247C546.797 139.247 551.519 137.784 554.907 134.858C558.347 131.932 560.066 127.877 560.066 122.692C560.066 117.507 558.347 113.452 554.907 110.526C551.519 107.549 546.797 106.06 540.739 106.06H505.242V139.247H540.739ZM647.801 202.31C637.021 202.31 627.473 200.385 619.157 196.535C610.892 192.685 604.475 187.295 599.907 180.365C595.338 173.384 593.054 165.35 593.054 156.264C593.054 147.127 595.338 139.067 599.907 132.086C604.475 125.105 610.892 119.689 619.157 115.839C627.473 111.989 637.021 110.064 647.801 110.064C658.581 110.064 668.103 111.989 676.368 115.839C684.684 119.689 691.126 125.105 695.695 132.086C700.263 139.067 702.548 147.127 702.548 156.264C702.548 165.35 700.263 173.384 695.695 180.365C691.126 187.295 684.684 192.685 676.368 196.535C668.103 200.385 658.581 202.31 647.801 202.31ZM619.08 156.264C619.08 161.705 620.235 166.428 622.545 170.432C624.855 174.385 628.166 177.439 632.478 179.595C636.79 181.751 641.897 182.829 647.801 182.829C653.704 182.829 658.786 181.751 663.047 179.595C667.359 177.439 670.67 174.385 672.98 170.432C675.29 166.428 676.445 161.705 676.445 156.264C676.445 150.823 675.29 146.1 672.98 142.096C670.67 138.092 667.359 135.012 663.047 132.856C658.735 130.7 653.653 129.622 647.801 129.622C641.897 129.622 636.79 130.7 632.478 132.856C628.166 135.012 624.855 138.092 622.545 142.096C620.235 146.1 619.08 150.823 619.08 156.264ZM743.176 81.42V200H717.381V81.42H743.176ZM762.498 81.42H788.293V167.352L833.107 112.451H861.212L830.643 148.025L863.676 200H834.185L814.242 167.044L785.906 200H762.498V81.42ZM946.301 180.288C941.937 187.269 936.419 192.685 929.746 196.535C923.124 200.385 915.757 202.31 907.647 202.31C899.177 202.31 891.631 200.385 885.009 196.535C878.387 192.685 873.228 187.269 869.532 180.288C865.887 173.307 864.065 165.299 864.065 156.264C864.065 147.178 865.887 139.144 869.532 132.163C873.228 125.13 878.361 119.689 884.932 115.839C891.554 111.989 899.125 110.064 907.647 110.064C915.757 110.064 923.124 111.989 929.746 115.839C936.419 119.638 941.963 125.028 946.378 132.009L948.611 112.451H975.253L970.171 156.187L975.253 200H948.611L946.301 180.288ZM890.168 156.264C890.168 161.295 891.22 165.786 893.325 169.739C895.429 173.692 898.33 176.772 902.026 178.979C905.773 181.186 910.008 182.29 914.731 182.29C919.505 182.29 924.048 181.186 928.36 178.979C932.672 176.772 936.445 173.717 939.679 169.816C942.964 165.863 945.531 161.346 947.379 156.264C945.531 151.182 942.964 146.665 939.679 142.712C936.445 138.759 932.672 135.679 928.36 133.472C924.048 131.213 919.505 130.084 914.731 130.084C910.008 130.084 905.773 131.213 902.026 133.472C898.33 135.679 895.429 138.785 893.325 142.789C891.22 146.742 890.168 151.233 890.168 156.264ZM1070.68 179.595C1066.27 186.782 1060.7 192.377 1053.98 196.381C1047.25 200.334 1039.78 202.31 1031.57 202.31C1023.1 202.31 1015.55 200.385 1008.93 196.535C1002.31 192.685 997.15 187.269 993.454 180.288C989.809 173.307 987.987 165.299 987.987 156.264C987.987 147.178 989.809 139.144 993.454 132.163C997.15 125.13 1002.28 119.689 1008.85 115.839C1015.48 111.989 1023.05 110.064 1031.57 110.064C1039.78 110.064 1047.25 112.015 1053.98 115.916C1060.7 119.817 1066.24 125.336 1070.61 132.471L1076.31 81.42H1102.95L1094.48 154.416L1099.48 200H1072.99L1070.68 179.595ZM1014.09 156.264C1014.09 161.295 1015.14 165.786 1017.25 169.739C1019.35 173.692 1022.25 176.772 1025.95 178.979C1029.69 181.186 1033.93 182.29 1038.65 182.29C1043.43 182.29 1047.97 181.186 1052.28 178.979C1056.59 176.772 1060.37 173.717 1063.6 169.816C1066.89 165.863 1069.45 161.346 1071.3 156.264C1069.45 151.182 1066.89 146.665 1063.6 142.712C1060.37 138.759 1056.59 135.679 1052.28 133.472C1047.97 131.213 1043.43 130.084 1038.65 130.084C1033.93 130.084 1029.69 131.213 1025.95 133.472C1022.25 135.679 1019.35 138.785 1017.25 142.789C1015.14 146.742 1014.09 151.233 1014.09 156.264ZM1166.5 202.31C1155.72 202.31 1146.17 200.385 1137.85 196.535C1129.59 192.685 1123.17 187.295 1118.6 180.365C1114.04 173.384 1111.75 165.35 1111.75 156.264C1111.75 147.127 1114.04 139.067 1118.6 132.086C1123.17 125.105 1129.59 119.689 1137.85 115.839C1146.17 111.989 1155.72 110.064 1166.5 110.064C1177.28 110.064 1186.8 111.989 1195.06 115.839C1203.38 119.689 1209.82 125.105 1214.39 132.086C1218.96 139.067 1221.24 147.127 1221.24 156.264C1221.24 165.35 1218.96 173.384 1214.39 180.365C1209.82 187.295 1203.38 192.685 1195.06 196.535C1186.8 200.385 1177.28 202.31 1166.5 202.31ZM1137.78 156.264C1137.78 161.705 1138.93 166.428 1141.24 170.432C1143.55 174.385 1146.86 177.439 1151.17 179.595C1155.49 181.751 1160.59 182.829 1166.5 182.829C1172.4 182.829 1177.48 181.751 1181.74 179.595C1186.06 177.439 1189.37 174.385 1191.68 170.432C1193.99 166.428 1195.14 161.705 1195.14 156.264C1195.14 150.823 1193.99 146.1 1191.68 142.096C1189.37 138.092 1186.06 135.012 1181.74 132.856C1177.43 130.7 1172.35 129.622 1166.5 129.622C1160.59 129.622 1155.49 130.7 1151.17 132.856C1146.86 135.012 1143.55 138.092 1141.24 142.096C1138.93 146.1 1137.78 150.823 1137.78 156.264ZM1225.65 120.382L1243.89 114.376L1254.83 89.197H1269.61V112.451H1308.34V131.778H1269.61V163.579C1269.61 168.199 1270.23 171.844 1271.46 174.513C1272.69 177.182 1274.67 179.107 1277.39 180.288C1280.11 181.469 1283.83 182.059 1288.55 182.059C1292.87 182.059 1296.72 181.648 1300.1 180.827C1303.54 180.006 1306.8 178.774 1309.88 177.131V197.228C1306.7 198.614 1302.65 199.795 1297.72 200.77C1292.79 201.797 1287.84 202.31 1282.86 202.31C1269.61 202.31 1259.81 199.23 1253.44 193.07C1247.08 186.91 1243.89 178.312 1243.89 167.275V131.778H1225.65V120.382ZM564.301 341H545.296L537.841 324.41H494.161L486.706 341H467.701L504.504 262.25H527.499L564.301 341ZM531.331 309.92L516.001 275.952L500.724 309.92H531.331ZM615.461 297.215C619.521 297.215 622.706 296.287 625.016 294.432C627.361 292.577 628.533 290.022 628.533 286.768C628.533 283.512 627.361 280.957 625.016 279.102C622.706 277.247 619.521 276.32 615.461 276.32H590.576V297.215H615.461ZM572.778 262.25H617.613C623.318 262.25 628.358 263.282 632.733 265.347C637.108 267.377 640.503 270.247 642.918 273.957C645.333 277.667 646.541 281.938 646.541 286.768C646.541 290.897 645.631 294.625 643.811 297.95C641.991 301.275 639.401 304.022 636.041 306.192C632.716 308.362 628.813 309.815 624.333 310.55L648.903 341H628.008L604.278 311.075H590.576V341H572.778V262.25ZM725.037 308.45H679.572L676.737 326.195H728.292V341H657.364L663.507 301.625L657.364 262.25H727.767V277.055H676.737L679.572 294.8H725.037V308.45ZM741.865 262.25H764.965L808.645 320.892V262.25H825.918V341H803.395L759.138 281.307V341H741.865V262.25ZM930.981 341H911.976L904.521 324.41H860.841L853.386 341H834.381L871.183 262.25H894.178L930.981 341ZM898.011 309.92L882.681 275.952L867.403 309.92H898.011Z" fill="white"/>
</svg>
